# xmcd
#
# Track frame offsets:
#	150
#	15651
#	29721
#	39328
#	54281
#	72954
#	82830
#	96579
#	106815
#	121658
#	134906
#	155745
#	170262
#	183426
#	195899
#	208148
#	220373
#	234592
#	247609
#	260007
#	272625
#	288845
#	302094
#	321817
#	337068
#
# Disc length: 4692 seconds
#
# Revision: 1
# Processed by: cddbd v1.5.2PL0 Copyright (c) Steve Scherf et al.
# Submitted via: audiograbber 1.83.01
#
DISCID=67125219
DTITLE=B. Jeff Stone - All Time Greatest Hits
DYEAR=2007
DGENRE=Country
TTITLE0=Thinking Of A Rendezvous - Track  1
TTITLE1=Somebody Done Somebody Wrong Song - Track  2
TTITLE2=Dukes Of Hazzard - Track  3
TTITLE3=Hello Mr Heartache - Track  4
TTITLE4=Come A Little Bit Closer - Track  5
TTITLE5=Pamela Brown - Track  6
TTITLE6=Don´t Make My Brown Eyes Blue - Track  7
TTITLE7=Down In Louisiana - Track  8
TTITLE8=Hey Little Newsboy - Track  9
TTITLE9=I Don´t Think She´s In Love Anymore - Track 10
TTITLE10=Is Anybody Goin To San Antone - Track 11
TTITLE11=Lost Highway Saloon - Track 12
TTITLE12=Amanda - Track 13
TTITLE13=Mind Your Own Bussiness - Track 14
TTITLE14=Patricia´s Song - Track 15
TTITLE15=Peace In The Valley - Track 16
TTITLE16=Sweet Thang - Track 17
TTITLE17=Texas Country Boy - Track 18
TTITLE18=Texas Country Boy - Track 19
TTITLE19=Texas Tea - Track 20
TTITLE20=The Blizzard - Track 21
TTITLE21=Whiskey O - Track 22
TTITLE22=Your So Good When You´re Bad - Track 23
TTITLE23=When It´s Christmas Time In Texas - Track 24
TTITLE24=Only Daddy That´ll Walk The Line - Track 25
EXTD=
EXTT0=
EXTT1=
EXTT2=
EXTT3=
EXTT4=
EXTT5=
EXTT6=
EXTT7=
EXTT8=
EXTT9=
EXTT10=
EXTT11=
EXTT12=
EXTT13=
EXTT14=
EXTT15=
EXTT16=
EXTT17=
EXTT18=
EXTT19=
EXTT20=
EXTT21=
EXTT22=
EXTT23=
EXTT24=
PLAYORDER=
